<svg xmlns="http://www.w3.org/2000/svg" width="500" height="500" viewBox="0 0 500 500" version="1.1"><path d="M 222 56.439 C 204.635 58.942, 189.660 63.780, 175.131 71.581 C 132.628 94.403, 107.980 135.464, 97.442 201 C 95.213 214.865, 94.255 274.349, 95.955 293.387 C 99.128 328.932, 108.245 363.572, 120.330 386 C 127.777 399.821, 134.199 408.427, 144.955 419 C 164.969 438.673, 186.909 449.137, 217.394 453.548 C 233.999 455.951, 282.544 455.124, 301.679 452.112 C 319.221 449.351, 335.508 445.777, 346.500 442.275 L 355.500 439.409 355.768 415.656 L 356.036 391.903 352.768 392.447 C 338.833 394.766, 263.651 395.886, 247.174 394.020 C 225.707 391.588, 209.281 384.213, 195.907 371 C 183.482 358.726, 175.890 344.700, 170.194 323.500 C 159.087 282.161, 159.535 215.354, 171.163 179 C 183.268 141.151, 204.946 122.656, 244 116.859 C 258.591 114.692, 324.580 115.803, 348.769 118.621 L 354.037 119.235 353.769 95.875 L 353.500 72.514 349.760 70.754 C 342.427 67.302, 324.601 62.842, 304.207 59.355 C 284.884 56.051, 281.763 55.790, 257.500 55.442 C 238.994 55.177, 228.762 55.464, 222 56.439" stroke="none" fill="#fafbfc" fill-rule="evenodd"/><path d="M 224 0.525 C 223.175 0.686, 219.125 1.334, 215 1.964 C 205.636 3.396, 197.549 4.888, 193 6.022 C 191.075 6.502, 186.350 7.664, 182.500 8.605 C 178.650 9.546, 175.073 10.695, 174.550 11.158 C 174.028 11.621, 172.655 12, 171.500 12 C 170.345 12, 168.972 12.358, 168.450 12.796 C 167.927 13.234, 165.700 14.185, 163.500 14.911 C 161.300 15.637, 158.037 16.853, 156.250 17.615 C 146.972 21.569, 145.069 22.429, 140 24.959 C 121.617 34.137, 105.193 44.794, 90.199 57.275 C 80.803 65.097, 64.246 81.334, 59 87.872 C 57.075 90.272, 55.034 92.745, 54.464 93.367 C 53.894 93.990, 52.096 96.300, 50.469 98.500 C 48.843 100.700, 47.237 102.725, 46.903 103 C 46.032 103.716, 35.700 119.876, 32.430 125.639 C 26.966 135.267, 18.316 153.860, 15.049 163 C 14.361 164.925, 13.439 167.400, 13 168.500 C 11.740 171.661, 7.759 185.101, 6.780 189.500 C 4.247 200.887, 4.128 201.543, 1.064 221 C -0.214 229.116, -0.258 269.253, 1.002 278 C 2.880 291.039, 3.981 297.595, 5.034 302 C 5.625 304.475, 6.492 308.300, 6.960 310.500 C 11.092 329.943, 22.838 357.959, 36.307 380.500 C 50.269 403.865, 76.144 432.509, 98.114 448.920 C 116.337 462.533, 148.329 480.176, 163.500 484.979 C 165.700 485.676, 168.281 486.640, 169.236 487.123 C 170.191 487.605, 171.804 488, 172.820 488 C 173.836 488, 174.982 488.315, 175.367 488.701 C 176.416 489.749, 187.177 492.968, 189.691 492.985 C 190.896 492.993, 192.160 493.450, 192.500 494 C 192.840 494.550, 194.865 495, 197 495 C 199.135 495, 201.160 495.450, 201.500 496 C 201.840 496.550, 204.701 497, 207.859 497 C 211.119 497, 214.140 497.540, 214.850 498.250 C 216.558 499.959, 267.368 500.561, 278.500 499.005 C 282.900 498.389, 288.750 497.665, 291.500 497.395 C 294.250 497.125, 297.400 496.503, 298.500 496.014 C 299.600 495.524, 302.075 494.928, 304 494.688 C 308.634 494.110, 323.040 490.247, 325.236 488.992 C 326.191 488.446, 327.852 488, 328.927 488 C 330.002 488, 331.160 487.550, 331.500 487 C 331.840 486.450, 332.998 486, 334.073 486 C 335.148 486, 336.809 485.616, 337.764 485.147 C 338.719 484.678, 341.075 483.611, 343 482.777 C 369.230 471.405, 390.808 458.423, 410.500 442.166 C 420.096 434.244, 435.283 419.312, 441.019 412.160 C 442.934 409.773, 445.525 406.623, 446.778 405.160 C 452.522 398.452, 467.085 375.306, 472.679 363.994 C 480.543 348.094, 484 340.318, 484 338.532 C 484 337.754, 484.450 336.840, 485 336.500 C 485.550 336.160, 486 334.810, 486 333.500 C 486 332.190, 486.450 330.840, 487 330.500 C 487.550 330.160, 488 329.002, 488 327.927 C 488 326.852, 488.424 325.191, 488.941 324.236 C 489.459 323.281, 490.609 319.800, 491.496 316.500 C 492.384 313.200, 493.535 309.118, 494.055 307.429 C 494.575 305.740, 495 303.017, 495 301.379 C 495 299.741, 495.410 297.972, 495.912 297.450 C 496.414 296.927, 497.048 294.025, 497.322 291 C 497.596 287.975, 498.423 282.800, 499.160 279.500 C 500.927 271.589, 500.931 225.524, 499.166 219 C 498.496 216.525, 497.531 212.025, 497.021 209 C 496.511 205.975, 495.647 201.475, 495.101 199 C 494.554 196.525, 493.822 193.150, 493.474 191.500 C 492.444 186.626, 487.932 171.645, 486.927 169.764 C 486.417 168.809, 486 167.148, 486 166.073 C 486 164.998, 485.550 163.840, 485 163.500 C 484.450 163.160, 484 162.246, 484 161.468 C 484 158.434, 471.167 131.929, 463.797 119.741 C 453.750 103.127, 443.847 90.759, 427.544 74.463 C 410.064 56.990, 402.040 50.480, 383 38.322 C 361.048 24.304, 338.889 14.499, 314.500 8.011 C 302.780 4.893, 299.038 4.192, 277.500 1.078 C 271.367 0.191, 228.007 -0.257, 224 0.525 M 222 56.439 C 204.635 58.942, 189.660 63.780, 175.131 71.581 C 132.628 94.403, 107.980 135.464, 97.442 201 C 95.213 214.865, 94.255 274.349, 95.955 293.387 C 99.128 328.932, 108.245 363.572, 120.330 386 C 127.777 399.821, 134.199 408.427, 144.955 419 C 164.969 438.673, 186.909 449.137, 217.394 453.548 C 233.999 455.951, 282.544 455.124, 301.679 452.112 C 319.221 449.351, 335.508 445.777, 346.500 442.275 L 355.500 439.409 355.768 415.656 L 356.036 391.903 352.768 392.447 C 338.833 394.766, 263.651 395.886, 247.174 394.020 C 225.707 391.588, 209.281 384.213, 195.907 371 C 183.482 358.726, 175.890 344.700, 170.194 323.500 C 159.087 282.161, 159.535 215.354, 171.163 179 C 183.268 141.151, 204.946 122.656, 244 116.859 C 258.591 114.692, 324.580 115.803, 348.769 118.621 L 354.037 119.235 353.769 95.875 L 353.500 72.514 349.760 70.754 C 342.427 67.302, 324.601 62.842, 304.207 59.355 C 284.884 56.051, 281.763 55.790, 257.500 55.442 C 238.994 55.177, 228.762 55.464, 222 56.439 M 0.434 249.500 C 0.433 263.250, 0.574 269.014, 0.747 262.308 C 0.919 255.603, 0.920 244.353, 0.748 237.308 C 0.576 230.264, 0.434 235.750, 0.434 249.500" stroke="none" fill="#0424fb" fill-rule="evenodd"/></svg>